<?xml version="1.0"?>
<svg xmlns="http://www.w3.org/2000/svg" xmlns:xlink="http://www.w3.org/1999/xlink" xmlns:svgjs="http://svgjs.com/svgjs" version="1.1" width="512" height="512" x="0" y="0" viewBox="0 0 512 512" style="enable-background:new 0 0 512 512" xml:space="preserve" class=""><g>
<g xmlns="http://www.w3.org/2000/svg">
	<g>
		<path d="M395.13,72.348c-9.217,0-16.696,7.473-16.696,16.696v333.913c0,9.223,7.479,16.696,16.696,16.696    s16.696-7.473,16.696-16.696V89.044C411.826,79.821,404.348,72.348,395.13,72.348z" fill="#ffffff" data-original="#000000" style="" class=""/>
	</g>
</g>
<g xmlns="http://www.w3.org/2000/svg">
	<g>
		<path d="M205.913,72.348c-9.217,0-16.696,7.473-16.696,16.696v333.913c0,9.223,7.479,16.696,16.696,16.696    c9.217,0,16.696-7.473,16.696-16.696V89.044C222.609,79.821,215.13,72.348,205.913,72.348z" fill="#ffffff" data-original="#000000" style="" class=""/>
	</g>
</g>
<g xmlns="http://www.w3.org/2000/svg">
	<g>
		<path d="M128,72.348c-9.217,0-16.696,7.473-16.696,16.696v333.913c0,9.223,7.479,16.696,16.696,16.696s16.696-7.473,16.696-16.696    V89.044C144.696,79.821,137.217,72.348,128,72.348z" fill="#ffffff" data-original="#000000" style="" class=""/>
	</g>
</g>
<g xmlns="http://www.w3.org/2000/svg">
	<g>
		<path d="M33.391,72.348C14.949,72.348,0,87.297,0,105.739v300.522c0,18.442,14.949,33.391,33.391,33.391    s33.391-14.949,33.391-33.391V105.739C66.783,87.297,51.833,72.348,33.391,72.348z" fill="#ffffff" data-original="#000000" style="" class=""/>
	</g>
</g>
<g xmlns="http://www.w3.org/2000/svg" id="SVGCleanerId_0">
	<g>
		<path d="M300.522,72.348c-18.442,0-33.391,14.949-33.391,33.391v300.522c0,18.442,14.949,33.391,33.391,33.391    s33.391-14.949,33.391-33.391V105.739C333.913,87.297,318.964,72.348,300.522,72.348z" fill="#ffffff" data-original="#000000" style="" class=""/>
	</g>
</g>
<g xmlns="http://www.w3.org/2000/svg">
	<g>
		<path d="M300.522,72.348c-18.442,0-33.391,14.949-33.391,33.391v300.522c0,18.442,14.949,33.391,33.391,33.391    s33.391-14.949,33.391-33.391V105.739C333.913,87.297,318.964,72.348,300.522,72.348z" fill="#ffffff" data-original="#000000" style="" class=""/>
	</g>
</g>
<g xmlns="http://www.w3.org/2000/svg">
	<g>
		<path d="M478.609,72.348c-18.442,0-33.391,14.949-33.391,33.391v300.522c0,18.442,14.949,33.391,33.391,33.391    S512,424.703,512,406.261V105.739C512,87.297,497.051,72.348,478.609,72.348z" fill="#ffffff" data-original="#000000" style="" class=""/>
	</g>
</g>
<g xmlns="http://www.w3.org/2000/svg">
</g>
<g xmlns="http://www.w3.org/2000/svg">
</g>
<g xmlns="http://www.w3.org/2000/svg">
</g>
<g xmlns="http://www.w3.org/2000/svg">
</g>
<g xmlns="http://www.w3.org/2000/svg">
</g>
<g xmlns="http://www.w3.org/2000/svg">
</g>
<g xmlns="http://www.w3.org/2000/svg">
</g>
<g xmlns="http://www.w3.org/2000/svg">
</g>
<g xmlns="http://www.w3.org/2000/svg">
</g>
<g xmlns="http://www.w3.org/2000/svg">
</g>
<g xmlns="http://www.w3.org/2000/svg">
</g>
<g xmlns="http://www.w3.org/2000/svg">
</g>
<g xmlns="http://www.w3.org/2000/svg">
</g>
<g xmlns="http://www.w3.org/2000/svg">
</g>
<g xmlns="http://www.w3.org/2000/svg">
</g>
</g></svg>
